<svg xmlns="http://www.w3.org/2000/svg" version="1.1" xmlns:xlink="http://www.w3.org/1999/xlink" xmlns:svgjs="http://svgjs.dev/svgjs" width="1000" height="340" viewBox="0 0 1000 340"><g transform="matrix(1,0,0,1,-0.6060594989743322,0.4448602582826311)"><svg viewBox="0 0 396 135" data-background-color="#ffffff" preserveAspectRatio="xMidYMid meet" height="340" width="1000" xmlns="http://www.w3.org/2000/svg" xmlns:xlink="http://www.w3.org/1999/xlink"><g id="tight-bounds" transform="matrix(1,0,0,1,0.23999956159383373,-0.1766356907886859)"><svg viewBox="0 0 395.52 135.35327138157737" height="135.35327138157737" width="395.52"><g><svg viewBox="0 0 626.7635642023693 214.48851839999998" height="135.35327138157737" width="395.52"><g transform="matrix(1,0,0,1,231.2435642023693,56.22914880875959)"><svg viewBox="0 0 395.52 102.0302207824808" height="102.0302207824808" width="395.52"><g><svg viewBox="0 0 395.52 102.0302207824808" height="102.0302207824808" width="395.52"><g><svg viewBox="0 0 395.52 70.97310104529615" height="70.97310104529615" width="395.52"><g transform="matrix(1,0,0,1,0,0)"><svg width="395.52" viewBox="4.349999904632568 -35.650001525878906 200.88999938964844 36.05000305175781" height="70.97310104529615" data-palette-color="#61777f"><path d="M8.4 0L4.35 0 4.35-35.25 26.15-35.25 26.15-31.8 8.4-31.8 8.4-19.65 25.15-19.65 25.15-16.2 8.4-16.2 8.4 0ZM46.15 0.4Q41.25 0.4 37.62-1.8 34-4 32.05-8.05 30.1-12.1 30.1-17.6L30.1-17.6Q30.1-23.15 32.02-27.23 33.95-31.3 37.57-33.48 41.2-35.65 46.15-35.65L46.15-35.65Q51.1-35.65 54.72-33.48 58.35-31.3 60.27-27.23 62.2-23.15 62.2-17.65L62.2-17.65Q62.2-12.15 60.25-8.08 58.3-4 54.67-1.8 51.05 0.4 46.15 0.4L46.15 0.4ZM46.15-3.1Q51.75-3.1 54.87-6.88 58-10.65 58-17.65L58-17.65Q58-24.65 54.9-28.4 51.8-32.15 46.15-32.15L46.15-32.15Q40.55-32.15 37.42-28.38 34.3-24.6 34.3-17.65L34.3-17.65Q34.3-10.7 37.42-6.9 40.55-3.1 46.15-3.1L46.15-3.1ZM84.34 0.4Q79.45 0.4 75.82-1.8 72.2-4 70.25-8.05 68.3-12.1 68.3-17.6L68.3-17.6Q68.3-23.15 70.22-27.23 72.15-31.3 75.77-33.48 79.4-35.65 84.34-35.65L84.34-35.65Q89.3-35.65 92.92-33.48 96.55-31.3 98.47-27.23 100.4-23.15 100.4-17.65L100.4-17.65Q100.4-12.15 98.45-8.08 96.5-4 92.87-1.8 89.25 0.4 84.34 0.4L84.34 0.4ZM84.34-3.1Q89.95-3.1 93.07-6.88 96.2-10.65 96.2-17.65L96.2-17.65Q96.2-24.65 93.09-28.4 90-32.15 84.34-32.15L84.34-32.15Q78.75-32.15 75.62-28.38 72.5-24.6 72.5-17.65L72.5-17.65Q72.5-10.7 75.62-6.9 78.75-3.1 84.34-3.1L84.34-3.1ZM127.79-18.1Q130.84-17.3 132.52-15.1 134.19-12.9 134.19-9.6L134.19-9.6Q134.19-4.95 131.14-2.48 128.09 0 122.49 0L122.49 0 107.79 0 107.79-35.25 121.94-35.25Q127.39-35.25 130.39-32.85 133.39-30.45 133.39-26.05L133.39-26.05Q133.39-23.2 131.92-21.15 130.44-19.1 127.79-18.1L127.79-18.1ZM111.84-31.85L111.84-19.6 121.34-19.6Q125.29-19.6 127.32-21.2 129.34-22.8 129.34-25.85L129.34-25.85Q129.34-31.85 121.34-31.85L121.34-31.85 111.84-31.85ZM122.09-3.4Q126.24-3.4 128.22-4.93 130.19-6.45 130.19-9.7L130.19-9.7Q130.19-16.2 122.09-16.2L122.09-16.2 111.84-16.2 111.84-3.4 122.09-3.4ZM172.24 0L168.09 0 164.19-9.05 145.79-9.05 141.89 0 137.69 0 153.19-35.25 156.74-35.25 172.24 0ZM154.99-30.5L147.24-12.45 162.74-12.45 154.99-30.5ZM199.09-11.5L205.24 0 200.74 0 194.74-11.3Q193.64-13.35 192.16-14.13 190.69-14.9 188.14-14.9L188.14-14.9 181.54-14.9 181.54 0 177.49 0 177.49-35.25 191.99-35.25Q197.74-35.25 200.76-32.7 203.79-30.15 203.79-25.2L203.79-25.2Q203.79-21.1 201.46-18.57 199.14-16.05 194.84-15.4L194.84-15.4Q196.19-15 197.21-14.05 198.24-13.1 199.09-11.5L199.09-11.5ZM181.54-18.3L191.64-18.3Q195.74-18.3 197.76-20 199.79-21.7 199.79-25.15L199.79-25.15Q199.79-28.55 197.79-30.2 195.79-31.85 191.64-31.85L191.64-31.85 181.54-31.85 181.54-18.3Z" opacity="1" transform="matrix(1,0,0,1,0,0)" fill="#61777f" class="undefined-text-0" data-fill-palette-color="primary" id="text-0"></path></svg></g></svg></g><g transform="matrix(1,0,0,1,0,87.72814684766549)"><svg viewBox="0 0 232.209792 14.302073934815311" height="14.302073934815311" width="232.209792"><g transform="matrix(1,0,0,1,0,0)"><svg width="232.209792" viewBox="0.25 -36.25 598.25 36.849998474121094" height="14.302073934815311" data-palette-color="#61777f"><path d="M41.7 0L29.55 0 25.1-20.95 24.9-20.95 20.45 0 8.3 0 0.25-34.4 11.75-34.4 15.7-14.9 15.9-14.9 19.8-34.4 30.7-34.4 34.85-14.9 35.05-14.9 38.75-34.4 49.75-34.4 41.7 0ZM79.45 0L71.3 0 70.65-4Q69.1-1.85 66.57-0.63 64.05 0.6 61.25 0.6L61.25 0.6Q56.65 0.6 54.35-1.95 52.05-4.5 52.05-9.3L52.05-9.3 52.05-26.4 62-26.4 62-10.5Q62-8.8 62.87-7.78 63.75-6.75 65.35-6.75L65.35-6.75Q67.2-6.75 68.35-7.95 69.5-9.15 69.5-10.9L69.5-10.9 69.5-26.4 79.45-26.4 79.45 0ZM95.5-23.95Q98.34-27 102.9-27L102.9-27Q108.25-27 111.15-23.53 114.05-20.05 114.05-13.25L114.05-13.25Q114.05-6.4 111.15-2.9 108.25 0.6 102.9 0.6L102.9 0.6Q97.4 0.6 94.5-3.75L94.5-3.75 93.65 0 85.55 0 85.55-36.25 95.5-36.25 95.5-23.95ZM99.8-19.65Q97.59-19.65 96.5-18.07 95.4-16.5 95.4-14L95.4-14 95.4-12.35Q95.4-9.85 96.5-8.3 97.59-6.75 99.8-6.75L99.8-6.75Q104.09-6.75 104.09-11.85L104.09-11.85 104.09-14.5Q104.09-19.65 99.8-19.65L99.8-19.65ZM129.34-23.95Q132.19-27 136.74-27L136.74-27Q142.09-27 144.99-23.53 147.89-20.05 147.89-13.25L147.89-13.25Q147.89-6.4 144.99-2.9 142.09 0.6 136.74 0.6L136.74 0.6Q131.24 0.6 128.34-3.75L128.34-3.75 127.49 0 119.39 0 119.39-36.25 129.34-36.25 129.34-23.95ZM133.64-19.65Q131.44-19.65 130.34-18.07 129.24-16.5 129.24-14L129.24-14 129.24-12.35Q129.24-9.85 130.34-8.3 131.44-6.75 133.64-6.75L133.64-6.75Q137.94-6.75 137.94-11.85L137.94-11.85 137.94-14.5Q137.94-19.65 133.64-19.65L133.64-19.65ZM165.74-27Q171.79-27 175.59-24.98 179.39-22.95 179.39-18.4L179.39-18.4 179.39-8.1Q179.39-7.25 179.79-6.7 180.19-6.15 180.99-6.15L180.99-6.15 182.79-6.15 182.79-0.4Q182.64-0.3 182.01-0.08 181.39 0.15 180.24 0.38 179.09 0.6 177.59 0.6L177.59 0.6Q174.69 0.6 172.81-0.28 170.94-1.15 170.24-2.7L170.24-2.7Q168.34-1.2 165.99-0.3 163.64 0.6 160.49 0.6L160.49 0.6Q151.19 0.6 151.19-6.8L151.19-6.8Q151.19-10.65 153.26-12.68 155.34-14.7 159.24-15.45 163.14-16.2 169.44-16.2L169.44-16.2 169.44-17.5Q169.44-19.05 168.37-19.85 167.29-20.65 165.59-20.65L165.59-20.65Q164.04-20.65 162.91-20.1 161.79-19.55 161.79-18.35L161.79-18.35 161.79-18.15 151.99-18.15Q151.94-18.4 151.94-18.85L151.94-18.85Q151.94-22.6 155.51-24.8 159.09-27 165.74-27L165.74-27ZM169.44-11.5Q165.19-11.5 163.16-10.58 161.14-9.65 161.14-8.1L161.14-8.1Q161.14-5.6 164.54-5.6L164.54-5.6Q166.49-5.6 167.97-6.65 169.44-7.7 169.44-9.25L169.44-9.25 169.44-11.5ZM203.38 0L203.38-34.4 214.44-34.4 214.44-8.8 232.09-8.8 232.09 0 203.38 0ZM263.33 0L255.18 0 254.53-4Q252.98-1.85 250.46-0.63 247.93 0.6 245.13 0.6L245.13 0.6Q240.53 0.6 238.23-1.95 235.93-4.5 235.93-9.3L235.93-9.3 235.93-26.4 245.88-26.4 245.88-10.5Q245.88-8.8 246.76-7.78 247.63-6.75 249.23-6.75L249.23-6.75Q251.08-6.75 252.23-7.95 253.38-9.15 253.38-10.9L253.38-10.9 253.38-26.4 263.33-26.4 263.33 0ZM279.38-23.95Q282.23-27 286.78-27L286.78-27Q292.13-27 295.03-23.53 297.93-20.05 297.93-13.25L297.93-13.25Q297.93-6.4 295.03-2.9 292.13 0.6 286.78 0.6L286.78 0.6Q281.28 0.6 278.38-3.75L278.38-3.75 277.53 0 269.43 0 269.43-36.25 279.38-36.25 279.38-23.95ZM283.68-19.65Q281.48-19.65 280.38-18.07 279.28-16.5 279.28-14L279.28-14 279.28-12.35Q279.28-9.85 280.38-8.3 281.48-6.75 283.68-6.75L283.68-6.75Q287.98-6.75 287.98-11.85L287.98-11.85 287.98-14.5Q287.98-19.65 283.68-19.65L283.68-19.65ZM313.23-23.95Q316.08-27 320.63-27L320.63-27Q325.98-27 328.88-23.53 331.78-20.05 331.78-13.25L331.78-13.25Q331.78-6.4 328.88-2.9 325.98 0.6 320.63 0.6L320.63 0.6Q315.13 0.6 312.23-3.75L312.23-3.75 311.38 0 303.28 0 303.28-36.25 313.23-36.25 313.23-23.95ZM317.53-19.65Q315.33-19.65 314.23-18.07 313.13-16.5 313.13-14L313.13-14 313.13-12.35Q313.13-9.85 314.23-8.3 315.33-6.75 317.53-6.75L317.53-6.75Q321.83-6.75 321.83-11.85L321.83-11.85 321.83-14.5Q321.83-19.65 317.53-19.65L317.53-19.65ZM349.63-27Q355.68-27 359.48-24.98 363.28-22.95 363.28-18.4L363.28-18.4 363.28-8.1Q363.28-7.25 363.68-6.7 364.08-6.15 364.88-6.15L364.88-6.15 366.68-6.15 366.68-0.4Q366.53-0.3 365.9-0.08 365.28 0.15 364.13 0.38 362.98 0.6 361.48 0.6L361.48 0.6Q358.58 0.6 356.7-0.28 354.83-1.15 354.13-2.7L354.13-2.7Q352.23-1.2 349.88-0.3 347.53 0.6 344.38 0.6L344.38 0.6Q335.08 0.6 335.08-6.8L335.08-6.8Q335.08-10.65 337.15-12.68 339.23-14.7 343.13-15.45 347.03-16.2 353.33-16.2L353.33-16.2 353.33-17.5Q353.33-19.05 352.25-19.85 351.18-20.65 349.48-20.65L349.48-20.65Q347.93-20.65 346.8-20.1 345.68-19.55 345.68-18.35L345.68-18.35 345.68-18.15 335.88-18.15Q335.83-18.4 335.83-18.85L335.83-18.85Q335.83-22.6 339.4-24.8 342.98-27 349.63-27L349.63-27ZM353.33-11.5Q349.08-11.5 347.05-10.58 345.03-9.65 345.03-8.1L345.03-8.1Q345.03-5.6 348.43-5.6L348.43-5.6Q350.38-5.6 351.85-6.65 353.33-7.7 353.33-9.25L353.33-9.25 353.33-11.5ZM413.87 0L405.77 0 404.92-3.75Q402.02 0.6 396.52 0.6L396.52 0.6Q391.17 0.6 388.27-2.9 385.37-6.4 385.37-13.25L385.37-13.25Q385.37-20.05 388.27-23.53 391.17-27 396.52-27L396.52-27Q401.07-27 403.92-23.95L403.92-23.95 403.92-36.25 413.87-36.25 413.87 0ZM399.62-19.65Q395.32-19.65 395.32-14.5L395.32-14.5 395.32-11.85Q395.32-6.75 399.62-6.75L399.62-6.75Q401.82-6.75 402.92-8.3 404.02-9.85 404.02-12.35L404.02-12.35 404.02-14Q404.02-16.5 402.92-18.07 401.82-19.65 399.62-19.65L399.62-19.65ZM447.22 0L439.07 0 438.42-4Q436.87-1.85 434.34-0.63 431.82 0.6 429.02 0.6L429.02 0.6Q424.42 0.6 422.12-1.95 419.82-4.5 419.82-9.3L419.82-9.3 419.82-26.4 429.77-26.4 429.77-10.5Q429.77-8.8 430.64-7.78 431.52-6.75 433.12-6.75L433.12-6.75Q434.97-6.75 436.12-7.95 437.27-9.15 437.27-10.9L437.27-10.9 437.27-26.4 447.22-26.4 447.22 0ZM463.27-23.95Q466.12-27 470.67-27L470.67-27Q476.02-27 478.92-23.53 481.82-20.05 481.82-13.25L481.82-13.25Q481.82-6.4 478.92-2.9 476.02 0.6 470.67 0.6L470.67 0.6Q465.17 0.6 462.27-3.75L462.27-3.75 461.42 0 453.32 0 453.32-36.25 463.27-36.25 463.27-23.95ZM467.57-19.65Q465.37-19.65 464.27-18.07 463.17-16.5 463.17-14L463.17-14 463.17-12.35Q463.17-9.85 464.27-8.3 465.37-6.75 467.57-6.75L467.57-6.75Q471.87-6.75 471.87-11.85L471.87-11.85 471.87-14.5Q471.87-19.65 467.57-19.65L467.57-19.65ZM498.31-9.8L485.56-9.8 485.56-17.7 498.31-17.7 498.31-9.8ZM530.56 0L522.46 0 521.61-3.75Q518.71 0.6 513.21 0.6L513.21 0.6Q507.86 0.6 504.96-2.9 502.06-6.4 502.06-13.25L502.06-13.25Q502.06-20.05 504.96-23.53 507.86-27 513.21-27L513.21-27Q517.76-27 520.61-23.95L520.61-23.95 520.61-36.25 530.56-36.25 530.56 0ZM516.31-19.65Q512.01-19.65 512.01-14.5L512.01-14.5 512.01-11.85Q512.01-6.75 516.31-6.75L516.31-6.75Q518.51-6.75 519.61-8.3 520.71-9.85 520.71-12.35L520.71-12.35 520.71-14Q520.71-16.5 519.61-18.07 518.51-19.65 516.31-19.65L516.31-19.65ZM563.91 0L555.76 0 555.11-4Q553.56-1.85 551.03-0.63 548.51 0.6 545.71 0.6L545.71 0.6Q541.11 0.6 538.81-1.95 536.51-4.5 536.51-9.3L536.51-9.3 536.51-26.4 546.46-26.4 546.46-10.5Q546.46-8.8 547.33-7.78 548.21-6.75 549.81-6.75L549.81-6.75Q551.66-6.75 552.81-7.95 553.96-9.15 553.96-10.9L553.96-10.9 553.96-26.4 563.91-26.4 563.91 0ZM579.96-23.95Q582.81-27 587.36-27L587.36-27Q592.71-27 595.61-23.53 598.5-20.05 598.5-13.25L598.5-13.25Q598.5-6.4 595.61-2.9 592.71 0.6 587.36 0.6L587.36 0.6Q581.86 0.6 578.96-3.75L578.96-3.75 578.11 0 570 0 570-36.25 579.96-36.25 579.96-23.95ZM584.25-19.65Q582.06-19.65 580.96-18.07 579.86-16.5 579.86-14L579.86-14 579.86-12.35Q579.86-9.85 580.96-8.3 582.06-6.75 584.25-6.75L584.25-6.75Q588.56-6.75 588.56-11.85L588.56-11.85 588.56-14.5Q588.56-19.65 584.25-19.65L584.25-19.65Z" opacity="1" transform="matrix(1,0,0,1,0,0)" fill="#61777f" class="undefined-text-1" data-fill-palette-color="secondary" id="text-1"></path></svg></g></svg></g></svg></g></svg></g><g><svg viewBox="0 0 214.48851839999998 214.48851839999998" height="214.48851839999998" width="214.48851839999998"><g><svg></svg></g><g id="icon-0"><svg viewBox="0 0 214.48851839999998 214.48851839999998" height="214.48851839999998" width="214.48851839999998"><g><rect width="195.02567136" height="195.02567136" x="9.731423519999993" y="9.731423519999993" fill="#61777f" data-fill-palette-color="accent"></rect><rect width="195.02567136" height="195.02567136" x="19.462847039999993" y="-5.329070518200751e-15" fill="#61777f" opacity="0.5" data-fill-palette-color="accent"></rect></g><g transform="matrix(1,0,0,1,38.66404333236066,27.80406719999999)"><svg viewBox="0 0 137.16043173527865 158.880384" height="158.880384" width="137.16043173527865"><g><svg xmlns="http://www.w3.org/2000/svg" xmlns:xlink="http://www.w3.org/1999/xlink" version="1.1" x="0" y="0" viewBox="9.63800048828125 3.246999979019165 80.7239990234375 93.50699615478516" enable-background="new 0 0 100 100" xml:space="preserve" height="158.880384" width="137.16043173527865" class="icon-a-0" data-fill-palette-color="background" id="a-0"><g fill="#ffffff" data-fill-palette-color="background"><g fill="#ffffff" data-fill-palette-color="background"><polygon points="36.703,11.011 9.638,26.636 9.638,38.757 36.703,23.131 63.767,38.757 63.767,26.636   " fill="#ffffff" data-fill-palette-color="background"></polygon></g><g fill="#ffffff" data-fill-palette-color="background"><polygon points="63.298,89.092 36.233,73.467 36.233,61.348 63.298,76.973 90.362,61.348 90.362,73.467   " fill="#ffffff" data-fill-palette-color="background"></polygon></g><g fill="#ffffff" data-fill-palette-color="background"><polygon points="9.638,42.012 36.703,26.386 47.198,32.446 20.134,48.072 20.134,79.324 9.638,73.264   " fill="#ffffff" data-fill-palette-color="background"></polygon></g><g fill="#ffffff" data-fill-palette-color="background"><polygon points="77.083,18.872 50.018,3.247 39.522,9.307 66.586,24.932 66.586,56.184 77.083,50.124   " fill="#ffffff" data-fill-palette-color="background"></polygon></g><g fill="#ffffff" data-fill-palette-color="background"><polygon points="23.01,81.127 23.011,49.876 33.507,43.816 33.507,75.068 60.571,90.693 50.075,96.754   " fill="#ffffff" data-fill-palette-color="background"></polygon></g><g fill="#ffffff" data-fill-palette-color="background"><polygon points="90.362,58.092 90.362,26.84 79.866,20.78 79.866,52.031 52.802,67.658 63.298,73.719   " fill="#ffffff" data-fill-palette-color="background"></polygon></g></g></svg></g></svg></g></svg></g></svg></g></svg></g><defs></defs></svg><rect width="395.52" height="135.35327138157737" fill="none" stroke="none" visibility="hidden"></rect></g></svg></g></svg>